# xmcd CD database file
#
# Track frame offsets:
#	150
#	13694
#	39054
#	53035
#	72213
#	115470
#	130964
#	156757
#	170078
#	195603
#	221258
#	238824
#	263435
#	293898
#
# Disc length: 4398 seconds
#
# Revision: 0
# Processed by: cddbd v1.5.1PL0 Copyright (c) Steve Scherf et al.
# Submitted via: CDex 1.51
#
DISCID=c3112c0e
DTITLE=Blue Note by Bobby Flores - Espíritu Latino
DYEAR=2005
DGENRE=Jazz
TTITLE0=Latin Fever-Jack Constanzo
TTITLE1=Qué Pasa-Horace Silver
TTITLE2=Los Alamitos latinfunklovesong-Gene Harris
TTITLE3=Mambo de la Pinta-Art Pepper
TTITLE4=Plaza de Toros-Larry Young
TTITLE5=Light My Fire-Shirley Bassey
TTITLE6=Viva Tirado-Gerald Wilson
TTITLE7=Trinidad-Willie Bobo
TTITLE8=Saul Limbo-Candido
TTITLE9=Cristo Redentor-Donald Byrd
TTITLE10=Girl From Ipanema-Eliane Elias
TTITLE11=Chitlins con Carne-Kenny Burrell
TTITLE12=Down Here on The Ground-Grant Green
TTITLE13=Blue Bossa-Joe Henderson
EXTD=YEAR: 2005
EXTT0=
EXTT1=
EXTT2=
EXTT3=
EXTT4=
EXTT5=
EXTT6=
EXTT7=
EXTT8=
EXTT9=
EXTT10=
EXTT11=
EXTT12=
EXTT13=
PLAYORDER=
